<svg width="current" height="current" viewBox="0 0 32 29" fill="none" xmlns="http://www.w3.org/2000/svg">
<path fill-rule="evenodd" clip-rule="evenodd" d="M31.6084 0.354948C31.7326 0.467178 31.8311 0.600502 31.8983 0.747284C31.9655 0.894066 32.0001 1.05142 32.0001 1.21034C32.0001 1.36926 31.9655 1.52661 31.8983 1.6734C31.8311 1.82018 31.7326 1.9535 31.6084 2.06573L2.27945 28.6457C2.02912 28.8726 1.68961 29 1.33559 29C0.981573 29 0.642057 28.8726 0.39173 28.6457C0.141403 28.4188 0.000770569 28.1111 0.000770569 27.7903C0.000770569 27.4695 0.141403 27.1618 0.39173 26.9349L29.7207 0.354948C29.8445 0.242435 29.9916 0.153168 30.1536 0.0922598C30.3156 0.0313519 30.4892 0 30.6646 0C30.8399 0 31.0135 0.0313519 31.1755 0.0922598C31.3375 0.153168 31.4846 0.242435 31.6084 0.354948Z" fill="#F24E1E"/>
<path fill-rule="evenodd" clip-rule="evenodd" d="M0.391658 0.354948C0.267508 0.467178 0.169009 0.600502 0.101802 0.747284C0.0345945 0.894066 0 1.05142 0 1.21034C0 1.36926 0.0345945 1.52661 0.101802 1.6734C0.169009 1.82018 0.267508 1.9535 0.391658 2.06573L29.7206 28.6457C29.971 28.8726 30.3105 29 30.6645 29C31.0185 29 31.358 28.8726 31.6083 28.6457C31.8587 28.4188 31.9993 28.1111 31.9993 27.7903C31.9993 27.4695 31.8587 27.1618 31.6083 26.9349L2.27938 0.354948C2.15554 0.242435 2.00843 0.153168 1.84647 0.0922598C1.6845 0.0313519 1.51087 0 1.33552 0C1.16016 0 0.986534 0.0313519 0.824571 0.0922598C0.662608 0.153168 0.515495 0.242435 0.391658 0.354948Z" fill="#F24E1E"/>
</svg>
